<svg width="86" height="30" viewBox="0 0 86 30" fill="none" xmlns="http://www.w3.org/2000/svg">
<path d="M13.3339 29.1423C10.9733 28.994 8.6366 28.2524 6.7089 27.0399C5.31951 26.166 3.7991 24.7816 2.87777 23.5516C1.01003 21.0581 0.117933 18.5275 0.0185346 15.4408C-0.110974 11.419 1.31013 7.84081 4.17286 4.98055C6.39664 2.75869 9.04362 1.42178 12.1648 0.944058C13.1069 0.799859 15.2839 0.799605 16.2289 0.943587C17.1519 1.0842 18.44 1.41979 19.2288 1.72519C19.8299 1.95791 21.2791 2.66456 21.4945 2.83001C21.5632 2.88284 21.676 3.61497 22.0102 6.1794C22.2454 7.98439 22.436 9.49875 22.4337 9.54464C22.4314 9.59056 22.3225 9.20243 22.1916 8.6822C21.4584 5.76829 20.5241 4.03752 19.0789 2.91622C17.2937 1.53114 16.0249 1.08458 14.089 1.16008C11.9823 1.24225 10.1316 2.08605 8.38721 3.75977C7.56075 4.55274 7.0505 5.15973 6.43789 6.07863C5.32869 7.74241 4.50544 9.76011 4.11858 11.763C3.73854 13.7306 3.74009 16.2557 4.12259 18.2219C4.56728 20.508 5.58409 22.6872 7.04234 24.4796C7.84877 25.4708 9.1069 26.6011 10.0369 27.1698C11.7765 28.2336 13.4935 28.6743 15.6396 28.6077C16.9696 28.5665 17.9086 28.3833 19.0282 27.9469L19.6005 27.7239L19.5849 22.6253L19.5693 17.5266L19.412 17.0816C19.0539 16.0684 18.5582 15.5769 17.4477 15.134C17.1754 15.0254 17.0279 14.9493 17.1197 14.9649C18.373 15.1775 19.8015 15.2847 21.3787 15.2844C22.8345 15.2842 23.741 15.2252 24.9139 15.054C25.2813 15.0004 25.5888 14.9617 25.5972 14.9682C25.6056 14.9747 25.4553 15.0361 25.2632 15.1048C24.372 15.4234 23.7055 15.9613 23.3942 16.6129C22.9996 17.4391 23.0239 17.0164 23.0064 23.3532C22.9978 26.4967 22.9696 29.0686 22.9438 29.0686C22.918 29.0686 22.8269 28.9675 22.7412 28.8441C22.5643 28.5889 22.0164 28.1553 21.6849 28.008C21.3526 27.8604 20.7823 27.774 20.4044 27.814C19.9621 27.8609 19.6005 27.967 18.8833 28.2603C17.1754 28.9587 15.2591 29.2632 13.3339 29.1423ZM46.5705 29.1221C44.4672 28.9097 42.5986 28.0929 41.002 26.6881C38.66 24.6275 37.478 21.872 37.5968 18.7504C37.6929 16.2272 38.5735 14.1304 40.2987 12.3172C42.4154 10.0925 44.9201 9.06468 47.9623 9.17238C49.3149 9.22028 50.2454 9.41419 51.4419 9.89756C53.2332 10.6211 55.02 12.1438 56.1369 13.8985C58.0803 16.9515 58.0978 21.2528 56.1792 24.3384C55.7398 25.0452 55.2551 25.6353 54.5522 26.3193C53.0005 27.8296 51.3895 28.663 49.343 29.0143C48.6039 29.1412 47.2722 29.193 46.5705 29.1221ZM48.4239 28.7019C49.5555 28.4684 50.5262 27.7915 51.4093 26.6202C53.028 24.4733 53.7977 21.536 53.6102 18.2219C53.4723 15.7855 52.8653 13.821 51.7093 12.0698C51.2577 11.3856 50.4392 10.526 49.9148 10.1851C48.5167 9.27609 46.8189 9.25766 45.359 10.1356C44.8629 10.4339 43.9068 11.41 43.4861 12.0477C43.0851 12.6555 42.5596 13.6986 42.3105 14.3814C41.404 16.8658 41.295 20.2231 42.0314 22.9799C42.8228 25.9428 44.7263 28.2868 46.654 28.6725C46.8224 28.7062 47.0103 28.7436 47.0716 28.7556C47.3475 28.81 48.0322 28.7827 48.4239 28.7019ZM81.7457 29.069C80.4496 28.7296 79.6669 27.9774 78.6779 26.1205C78.2733 25.361 78.0052 24.7023 77.0817 22.199C76.1898 19.7813 75.7405 18.7716 75.1874 17.9414C74.4345 16.8115 73.7379 16.3864 72.6392 16.3864C72.0731 16.3864 71.4468 16.5275 70.2656 16.9213C67.8831 17.7155 66.6153 18.7472 65.6939 20.6416C65.203 21.651 65.193 21.7207 65.193 24.1338C65.193 26.4933 65.2183 26.717 65.5689 27.4555C65.9031 28.1595 66.4954 28.6392 67.4637 28.9902L67.8375 29.1257L67.5591 29.095C67.406 29.0782 67.0052 29.0285 66.6683 28.9847C64.605 28.7164 62.2128 28.7279 60.1063 29.0162C59.651 29.0785 59.2687 29.1198 59.2569 29.108C59.245 29.0961 59.342 29.0545 59.4723 29.0155C59.8994 28.8877 60.5494 28.5249 60.8606 28.2408C61.2066 27.9248 61.4489 27.5072 61.6388 26.8993L61.7691 26.4821V14.9958V3.50947L61.6388 3.0923C61.4581 2.51382 61.2064 2.06306 60.8907 1.75257C60.6083 1.47486 59.9665 1.11345 59.469 0.952023C59.3063 0.899202 59.181 0.848569 59.1907 0.839476C59.2003 0.83041 59.346 0.845388 59.5144 0.872127C60.598 1.04623 62.8957 1.2118 65.7186 1.3192C67.1953 1.37538 67.7333 1.37347 68.8919 1.30784C69.6593 1.26442 71.0887 1.23062 72.0686 1.23277C73.6107 1.23606 73.9548 1.25301 74.6295 1.35795C77.0668 1.73715 78.6855 2.46924 79.8935 3.7386C80.3935 4.26404 80.5786 4.52471 80.8851 5.13465C81.3916 6.14245 81.5846 7.19246 81.5425 8.71025C81.5105 9.86366 81.4118 10.4407 81.1158 11.2051C80.6227 12.4785 79.3775 13.7474 77.8894 14.4931C76.8608 15.0085 74.7341 15.8197 74.3693 15.8358C74.2981 15.8391 74.5122 15.8889 74.8452 15.9468C76.3265 16.2042 77.2092 16.6511 78.1891 17.6398C78.6836 18.1387 79.2236 18.8427 79.5533 19.4185C79.9178 20.055 80.5534 21.4624 81.0852 22.8109C81.8048 24.6354 82.0424 25.1728 82.4329 25.8591C82.8929 26.6676 83.2115 27.0624 83.6281 27.3403C84.0304 27.6087 84.3757 27.7197 84.9608 27.7684L85.3942 27.8045L85.1789 28.0889C84.8211 28.5616 84.2441 28.939 83.6385 29.0966C83.186 29.2144 82.2486 29.2007 81.7457 29.069ZM65.9606 19.5587C66.356 18.9645 67.0934 18.2192 67.6704 17.8308C68.2421 17.446 69.6423 16.7354 70.2852 16.5039C70.5598 16.405 71.0108 16.2653 71.2873 16.1934C72.1645 15.9654 74.0347 15.1 74.9319 14.5069C75.668 14.0202 76.543 13.0984 76.9795 12.3498C77.8414 10.8716 78.0886 8.28856 77.5512 6.37783C77.0094 4.45145 75.29 2.70757 73.2446 2.01009C72.0753 1.61137 71.1905 1.52343 69.0337 1.59163C68.1614 1.61923 66.9404 1.64274 66.3204 1.64393L65.193 1.6459V11.3076V20.9693L65.4202 20.4994C65.5451 20.241 65.7883 19.8178 65.9606 19.5587ZM27.7253 28.9716C28.955 28.5121 29.5386 27.8854 29.8425 26.6982C29.9483 26.2849 29.9522 26.0604 29.9513 20.4241C29.9502 13.9029 29.9642 14.1586 29.564 13.3474C29.2084 12.6266 28.5947 12.1357 27.6259 11.7972L27.2521 11.6666L27.6418 11.662C28.2353 11.655 29.2468 11.5558 29.7218 11.458C30.3216 11.3345 30.8938 11.1017 31.5689 10.7066C32.0382 10.4319 32.2674 10.2479 32.7488 9.75918L33.3462 9.15266L33.3626 17.8174C33.3808 27.4613 33.3483 26.6604 33.7552 27.5074C34.0715 28.1658 34.7784 28.7203 35.6441 28.9892C35.8198 29.0438 35.9547 29.0973 35.9439 29.1081C35.933 29.1189 35.5388 29.0776 35.0677 29.0162C32.8324 28.7249 30.5501 28.715 28.4212 28.9871C28.0538 29.0341 27.653 29.085 27.5305 29.1001C27.3485 29.1226 27.3841 29.0994 27.7253 28.9716ZM30.8987 6.99266C30.3557 6.8149 29.8609 6.38312 29.6289 5.8844C29.5058 5.61998 29.4814 5.48929 29.4814 5.09474C29.4814 4.50642 29.6422 4.11983 30.0609 3.70149C30.4796 3.28316 30.8666 3.1225 31.4554 3.1225C31.8499 3.1225 31.9812 3.14694 32.2446 3.26928C32.6859 3.47432 33.036 3.81629 33.2508 4.25239C33.4121 4.57959 33.4318 4.67124 33.4318 5.09357C33.4318 5.48945 33.4076 5.61904 33.2851 5.88015C33.0858 6.30477 32.8054 6.59955 32.3889 6.82216C32.0777 6.98854 31.9858 7.01032 31.5389 7.02348C31.2633 7.03156 30.9752 7.01756 30.8987 6.99266Z" fill="#CCCCCC"/>
<path d="M13.1273 29.1226C9.72176 28.8755 6.60932 27.4409 4.14432 24.9824C0.798093 21.6448 -0.621048 17.0201 0.251954 12.2977C0.849287 9.06659 2.71279 6.0094 5.37325 3.89596C8.03949 1.77792 11.2557 0.714079 14.6421 0.830035C16.1694 0.88233 17.4093 1.10354 18.7795 1.56819C19.5397 1.82598 21.1838 2.60212 21.4427 2.82549C21.5891 2.95174 21.5946 2.98428 22.0147 6.23476C22.248 8.03975 22.4367 9.5416 22.434 9.57218C22.4313 9.6028 22.3457 9.27738 22.2438 8.84908C21.8938 7.37867 21.3026 5.78265 20.7759 4.88663C20.222 3.94428 19.6093 3.27179 18.7271 2.63787C17.7687 1.94923 16.9538 1.53784 16.0756 1.29932C15.6703 1.18923 15.4823 1.17448 14.4751 1.17379C13.2319 1.17314 12.8616 1.2257 11.8931 1.54156C8.81051 2.54702 5.96026 5.78873 4.6265 9.8062C3.38566 13.5438 3.57229 17.9658 5.11505 21.3821C6.33473 24.083 8.47371 26.4275 10.7728 27.5834C11.7767 28.0882 12.9216 28.4399 13.9725 28.5665C14.6536 28.6485 16.0799 28.6345 16.7511 28.5392C17.7297 28.4002 18.8448 28.0861 19.4473 27.7798L19.6596 27.6719L19.6394 22.7382C19.6194 17.8538 19.618 17.8 19.4964 17.3595C19.167 16.1658 18.5702 15.5291 17.3826 15.1045C17.1905 15.0358 17.0402 14.9735 17.0486 14.9661C17.057 14.9587 17.276 14.9868 17.5354 15.0286C18.9446 15.2553 21.1014 15.3597 22.6311 15.2752C23.692 15.2166 25.3073 15.0411 25.5321 14.9601C25.59 14.9392 25.6249 14.9361 25.6096 14.9533C25.5943 14.9704 25.3777 15.0628 25.1283 15.1586C24.0417 15.576 23.5159 16.1173 23.1524 17.1926L23.0208 17.582L23.0054 23.3251C22.9969 26.4839 22.9719 29.0675 22.9497 29.0666C22.9276 29.0659 22.8237 28.9512 22.7189 28.8122C22.4897 28.5082 21.9259 28.0951 21.5409 27.949C21.1359 27.7952 20.5418 27.7608 20.0598 27.8633C19.8398 27.9101 19.3015 28.0911 18.8635 28.2656C17.1002 28.9682 15.1059 29.2661 13.1273 29.1226ZM46.6929 29.1222C44.3285 28.9136 42.2974 27.9728 40.6062 26.3028C39.15 24.8648 38.2387 23.2665 37.8384 21.4479C37.1705 18.4141 37.831 15.3631 39.6543 13.0599C42.1411 9.91839 45.8395 8.57167 49.7611 9.37969C53.4674 10.1434 56.6416 13.3298 57.3964 17.0444C57.834 19.1982 57.5572 21.588 56.6522 23.4699C55.6583 25.5366 53.7066 27.4172 51.5809 28.3566C50.2078 28.9634 48.2928 29.2633 46.6929 29.1222ZM48.3186 28.7316C48.7937 28.6546 49.4389 28.3998 49.8829 28.1139C50.4312 27.7608 51.245 26.9121 51.7145 26.2037C52.6841 24.7408 53.2787 23.0678 53.5353 21.081C53.6608 20.1089 53.6607 18.1702 53.535 17.1926C53.1965 14.559 52.2155 12.357 50.7225 10.8793C50.1175 10.2806 49.7524 10.0254 49.1567 9.78504C48.0727 9.34755 46.7574 9.4044 45.7074 9.93412C44.1123 10.7389 42.6307 12.9366 41.9779 15.4662C41.6618 16.6908 41.5683 17.5298 41.5683 19.1395C41.5683 20.3524 41.5881 20.714 41.691 21.3809C42.0696 23.8356 42.9711 25.8464 44.3296 27.2662C45.3079 28.2887 46.3283 28.7705 47.5446 28.7845C47.7743 28.7872 48.1226 28.7633 48.3186 28.7316ZM81.843 29.0932C80.7758 28.8619 79.9266 28.1845 79.1643 26.9563C78.5007 25.8871 78.1812 25.1569 77.1085 22.259C76.2524 19.9461 76.1684 19.737 75.8053 19.0154C74.9448 17.3046 74.1466 16.5417 73.0566 16.3878C72.5381 16.3147 72.0758 16.3792 71.0866 16.6626C68.1078 17.5161 66.6554 18.5919 65.6701 20.6747C65.2023 21.6633 65.1928 21.733 65.1928 24.1773C65.1928 26.5986 65.22 26.8169 65.6145 27.567C65.9391 28.1841 66.4094 28.5609 67.3352 28.9458C67.6366 29.0711 67.7183 29.1217 67.5868 29.1018C64.8033 28.68 62.364 28.6794 59.4029 29.0998C59.2771 29.1177 59.3611 29.0691 59.6399 28.9626C60.8151 28.5138 61.4122 27.8588 61.686 26.7179C61.7937 26.2688 61.796 26.0236 61.7964 15.0348C61.7968 2.5931 61.8195 3.36995 61.4318 2.54348C61.3262 2.31833 61.1635 2.03784 61.0702 1.92018C60.849 1.64117 60.2604 1.25333 59.7366 1.04147C59.2481 0.843884 59.2481 0.843898 60.0431 0.94818C62.1901 1.22979 67.2599 1.43762 68.9786 1.31446C70.4637 1.20804 72.8231 1.17745 73.6637 1.25369C75.3148 1.40349 76.9014 1.79941 77.9697 2.3282C78.5599 2.62035 79.2101 3.07765 79.6907 3.5386C80.9655 4.76136 81.5593 6.30727 81.5603 8.40541C81.5609 10.1335 81.2279 11.3276 80.4566 12.3615C80.0366 12.9244 79.2826 13.6426 78.7403 13.9963C77.8073 14.6049 76.0734 15.3522 74.6894 15.7422L74.2484 15.8665L74.8304 15.9564C75.7873 16.1043 76.626 16.4104 77.2738 16.8482C77.9011 17.2721 78.9315 18.4111 79.4472 19.2506C79.898 19.9844 80.6512 21.6609 81.3466 23.478C82.0143 25.2227 82.81 26.6812 83.3428 27.1368C83.8067 27.5336 84.4899 27.7853 85.1097 27.7879C85.2458 27.7884 85.3463 27.8151 85.3463 27.8507C85.3463 27.8848 85.1647 28.0934 84.9427 28.3142C84.4969 28.7578 84.0169 29.03 83.5155 29.1235C83.1001 29.201 82.2714 29.186 81.843 29.0932ZM65.8699 19.6931C66.3351 18.9714 67.0264 18.2677 67.7435 17.7857C68.6036 17.2076 70.1779 16.4907 71.1303 16.2435C71.8474 16.0573 72.3795 15.8422 73.5716 15.2563C75.032 14.5385 75.5951 14.1244 76.3608 13.2052C77.1012 12.3164 77.4358 11.6082 77.6736 10.4268C77.8467 9.56687 77.8604 7.66579 77.6989 6.93006C77.0917 4.1641 74.8718 2.15794 71.8742 1.66609C71.2187 1.55853 70.4145 1.54868 67.4893 1.61235L65.1928 1.66234V11.3151V20.9678L65.4589 20.443C65.6052 20.1543 65.7901 19.8169 65.8699 19.6931ZM27.8097 28.9462C28.9449 28.4732 29.4274 27.9951 29.7594 27.0148C29.9992 26.3066 30.0168 25.7832 29.996 19.9738C29.9768 14.5949 29.975 14.5171 29.8569 14.098C29.6855 13.4898 29.3888 12.9363 29.0618 12.6147C28.7555 12.3135 28.1826 11.9872 27.6138 11.79L27.2519 11.6646L27.6973 11.6613C28.4332 11.6554 29.3799 11.5473 29.9467 11.4039C30.996 11.1385 32.0363 10.5239 32.8084 9.71325C33.0716 9.4369 33.3003 9.2108 33.3165 9.2108C33.3327 9.2108 33.3529 13.0968 33.3613 17.8464C33.3756 25.9348 33.3829 26.5029 33.4755 26.8117C33.8173 27.9504 34.4289 28.5702 35.6283 28.9933C36.0724 29.1499 36.0669 29.1502 35.1003 29.0166C32.7243 28.6885 29.7698 28.721 27.5558 29.0995C27.4367 29.1199 27.5335 29.0613 27.8097 28.9462ZM30.7274 6.91442C30.0989 6.64941 29.6862 6.17125 29.5268 5.52341C29.3945 4.98538 29.4847 4.49701 29.8046 4.02031C30.5123 2.96576 31.9287 2.80503 32.8234 3.67776C33.2687 4.11218 33.432 4.49356 33.43 5.09448C33.428 5.67385 33.2685 6.06689 32.8763 6.45872C32.5003 6.83442 32.0944 7.00316 31.5109 7.02641C31.1118 7.04231 30.989 7.02444 30.7274 6.91442Z" fill="#B3B3B3"/>
<path d="M13.3339 29.1191C11.4311 29.0233 9.73719 28.5834 7.98933 27.7309C5.19037 26.3658 2.89979 24.1013 1.46532 21.2812C-0.375081 17.6631 -0.476142 12.9536 1.20729 9.25724C1.95443 7.6167 2.92924 6.21928 4.22787 4.92717C6.37453 2.79127 9.06309 1.44103 12.1091 0.969094C13.0369 0.825341 15.0458 0.795389 15.9227 0.912199C17.704 1.14956 19.419 1.69703 20.8888 2.49752C21.1495 2.63954 21.4135 2.80016 21.4754 2.85445C21.5753 2.94217 21.6323 3.29984 21.9874 6.06808C22.2071 7.7813 22.3984 9.27062 22.4124 9.37769C22.4265 9.48477 22.3409 9.19692 22.2222 8.73802C21.9199 7.56887 21.7936 7.16218 21.5052 6.42964C20.8217 4.69336 20.0841 3.65837 18.895 2.76695C17.8601 1.99121 17.0118 1.54581 16.1124 1.3061C15.5539 1.15723 14.0477 1.09811 13.352 1.19775C12.2613 1.35396 11.1999 1.72754 10.2823 2.27817C7.72996 3.80974 5.63775 6.62408 4.56943 9.96286C3.20829 14.2167 3.67323 19.074 5.78742 22.6872C7.46633 25.5565 9.98641 27.6231 12.6456 28.3113C14.1933 28.7119 16.2512 28.7346 17.732 28.3673C18.2577 28.237 19.0986 27.9531 19.3883 27.8083L19.6527 27.676V23.0448C19.6527 18.2694 19.6336 17.7715 19.4247 17.1142C19.1071 16.1146 18.6311 15.6168 17.5713 15.1756C17.1822 15.0137 17.152 14.9921 17.353 15.0196C19.2327 15.2771 21.0144 15.3658 22.5886 15.2804C23.2551 15.2443 24.0759 15.1784 24.4128 15.1341C24.7496 15.0898 25.1379 15.0404 25.2757 15.0244L25.5262 14.9951L25.2346 15.103C24.3192 15.4417 23.715 15.941 23.3855 16.6309C22.9784 17.483 22.9931 17.2267 22.9931 23.4754C22.9931 26.5516 22.9743 29.0675 22.9514 29.0663C22.9284 29.065 22.8263 28.9511 22.7245 28.8128C22.4881 28.4919 21.9668 28.1081 21.5581 27.9541C21.1186 27.7885 20.5037 27.7544 20.0146 27.8686C19.8003 27.9187 19.2992 28.0876 18.9012 28.2442C17.57 28.7676 16.3795 29.0426 15.1994 29.0993C14.8776 29.1147 14.5016 29.1343 14.3639 29.1428C14.2261 29.1512 13.7626 29.1409 13.3339 29.1191ZM46.84 29.1184C44.4581 28.9742 42.4674 28.0782 40.6759 26.3438C39.3581 25.0681 38.5746 23.8392 38.0576 22.237C37.5464 20.6526 37.4522 18.7248 37.8028 17.0225C38.392 14.1613 40.4504 11.533 43.1744 10.1632C45.1257 9.18199 47.5792 8.90817 49.883 9.41446C53.5706 10.2249 56.6778 13.4091 57.4029 17.121C57.7267 18.7783 57.6182 20.7457 57.1174 22.2994C56.8915 23.0001 56.2527 24.259 55.7992 24.897C55.5857 25.1974 55.0869 25.7618 54.6436 26.2048C53.7106 27.137 53.0793 27.5991 52.0264 28.1208C50.8235 28.7167 49.685 29.0348 48.5235 29.0996C48.2455 29.1151 47.9052 29.1348 47.7674 29.1436C47.6296 29.1523 47.2123 29.141 46.84 29.1184ZM48.4459 28.7099C49.3363 28.5214 49.9434 28.1718 50.7208 27.4001C52.9847 25.1528 54.0548 21.2248 53.5244 17.1097C53.3415 15.6912 52.984 14.4609 52.4173 13.2995C51.1972 10.799 49.5414 9.48926 47.6004 9.48926C46.2573 9.48926 45.0717 10.0871 44.0702 11.2692C42.8262 12.7377 41.9999 14.7132 41.6622 17.0263C41.5252 17.9647 41.5251 20.3141 41.662 21.2537C41.8648 22.6453 42.191 23.7498 42.737 24.8939C43.7709 27.0605 45.1319 28.3604 46.73 28.7076C47.1842 28.8063 47.9856 28.8071 48.4459 28.7099ZM81.8719 29.0886C80.5503 28.8055 79.6733 27.9846 78.7011 26.1208C78.2064 25.1725 78.0649 24.8289 77.1599 22.3797C76.2656 19.9594 75.9958 19.3095 75.5651 18.5392C74.7963 17.1642 74.1113 16.566 73.0985 16.385C72.6477 16.3045 72.2412 16.3462 71.4561 16.5532C69.3349 17.1127 67.7142 17.935 66.8443 18.8932C66.1551 19.6523 65.4817 20.8718 65.2476 21.7848C65.1322 22.2348 65.1281 22.3416 65.1516 24.2852C65.1739 26.1359 65.1865 26.3538 65.2943 26.7493C65.61 27.9077 66.2366 28.552 67.5034 29.0208C67.679 29.0858 67.7201 29.1142 67.6147 29.0977C66.0304 28.8502 64.7624 28.771 62.9661 28.8072C61.5668 28.8355 60.4136 28.926 59.6302 29.069C59.4643 29.0993 59.3196 29.1153 59.3087 29.1044C59.2979 29.0936 59.4776 29.016 59.7081 28.932C60.4311 28.6685 61.0179 28.2225 61.3208 27.7061C61.3965 27.577 61.5284 27.2739 61.6138 27.0325L61.7691 26.5936V14.996V3.39849L61.6118 2.9535C61.2613 1.96186 60.7882 1.47328 59.7649 1.04612C59.4698 0.922929 59.3852 0.870667 59.5144 0.891197C60.748 1.08739 63.8237 1.28713 66.557 1.34856C67.7539 1.37543 68.4712 1.36078 69.6468 1.28536C71.4106 1.17218 73.3911 1.19461 74.4321 1.33955C76.8846 1.68104 78.6616 2.45542 79.8538 3.70224C80.51 4.38844 80.8472 4.93685 81.1627 5.83064C81.4623 6.67971 81.5304 7.16176 81.5304 8.43244C81.5304 9.93211 81.3864 10.6755 80.9108 11.6308C80.5217 12.4124 79.6069 13.4177 78.7956 13.9553C77.9405 14.522 76.0185 15.36 74.6979 15.7419L74.2398 15.8744L74.5181 15.9118C76.2505 16.145 77.1713 16.6008 78.3047 17.7861C79.3765 18.9071 79.9823 20.0304 81.2549 23.2558C82.0942 25.3829 82.639 26.4169 83.2414 27.0262C83.7182 27.5084 84.4039 27.7895 85.1035 27.7895C85.2372 27.7895 85.3465 27.8109 85.3465 27.8371C85.3465 27.8632 85.199 28.0447 85.0188 28.2403C84.4099 28.9014 83.7549 29.1748 82.7855 29.1723C82.4946 29.1717 82.0835 29.1339 81.8719 29.0886ZM65.9897 19.534C66.7771 18.4132 67.5376 17.8069 69.1533 17.0118C69.8107 16.6882 70.1953 16.5456 71.663 16.0814C72.553 15.7999 74.5906 14.7933 75.1969 14.3356C76.1005 13.6536 76.9854 12.5417 77.325 11.6619C77.6791 10.7445 77.8307 9.81558 77.8307 8.56304C77.8307 7.20484 77.6532 6.38281 77.1358 5.34438C76.1826 3.43123 74.2692 2.07428 71.9572 1.67171C71.2876 1.55512 70.4557 1.54435 67.3781 1.61245L65.1373 1.66206L65.1386 11.3744L65.1399 21.0868L65.4306 20.501C65.5904 20.1788 65.8424 19.7437 65.9897 19.534ZM27.6538 29.0132C28.8687 28.5816 29.5297 27.8999 29.8572 26.7406C29.976 26.3202 29.9775 26.2537 29.996 20.7531C30.0084 17.0646 29.9947 15.0187 29.9555 14.68C29.8835 14.0577 29.6613 13.4101 29.3695 12.9716C29.0426 12.4805 28.3982 12.0461 27.5884 11.7711L27.311 11.6769L28.1445 11.6421C29.4407 11.5879 30.2313 11.4102 31.0871 10.9804C31.901 10.5718 32.389 10.2071 32.9252 9.60681C33.106 9.40449 33.2746 9.23077 33.3 9.22076C33.3254 9.21077 33.3529 13.103 33.3611 17.8702L33.3761 26.5379L33.5068 26.9273C33.8724 28.0164 34.4419 28.5705 35.6586 29.0208C35.8343 29.0858 35.8754 29.1142 35.77 29.0977C33.2576 28.7053 29.9868 28.6931 27.7531 29.0678C27.3172 29.1409 27.3082 29.1359 27.6538 29.0132ZM30.861 6.96499C30.5253 6.85544 30.2822 6.69136 29.9847 6.37355C29.2697 5.60982 29.3046 4.46798 30.0662 3.70704C30.8588 2.91514 32.0656 2.91931 32.8645 3.7167C33.2687 4.1201 33.4293 4.51206 33.4293 5.09497C33.4293 5.49 33.405 5.62011 33.2813 5.88596C33.0972 6.28157 32.6923 6.68235 32.2904 6.86681C31.9196 7.03701 31.2274 7.08456 30.861 6.96499Z" fill="#999999"/>
<path d="M82.0481 29.1221C80.6486 28.8867 79.6392 27.9655 78.6454 26.0168C78.2178 25.1782 78.0027 24.6486 77.1062 22.2266C76.1998 19.7776 75.94 19.1596 75.5119 18.434C74.3484 16.4617 73.3781 16.0262 71.3584 16.5695C69.3184 17.1182 67.9258 17.8125 66.9976 18.7437C66.4525 19.2904 66.0556 19.8692 65.6622 20.6913C65.1685 21.7226 65.1372 21.9193 65.1372 23.9895C65.1372 25.9771 65.1825 26.4925 65.4126 27.1225C65.7459 28.0351 66.3371 28.5949 67.3515 28.9589C67.5436 29.0278 67.6939 29.0894 67.6855 29.0958C67.6771 29.1023 67.3696 29.0632 67.0022 29.0094C65.7678 28.8286 64.6652 28.7737 62.9501 28.8079C61.5285 28.8363 60.8839 28.8822 59.7077 29.0391L59.4307 29.076L59.8692 28.8802C60.9475 28.3988 61.3974 27.8707 61.6993 26.7321L61.8246 26.2593V14.9955V3.7317L61.6993 3.2589C61.3881 2.08495 60.8908 1.51208 59.7843 1.05271C59.4854 0.928624 59.389 0.870728 59.5142 0.890635C60.9221 1.11434 65.1135 1.36769 67.4067 1.36769C68.0025 1.36769 69.0696 1.32755 69.7781 1.27849C71.2901 1.17379 73.3751 1.20139 74.3788 1.33939C75.7147 1.52306 77.0037 1.87772 77.9004 2.30833C79.3075 2.98409 80.4844 4.16225 81.0083 5.41957C81.6597 6.98305 81.7436 9.19845 81.215 10.8793C80.8623 12.0008 79.9364 13.1757 78.8031 13.9398C77.9509 14.5144 75.9187 15.4018 74.6732 15.7432C74.4041 15.817 74.201 15.8792 74.2217 15.8814C75.9672 16.07 76.9815 16.5039 78.0325 17.5116C78.935 18.377 79.5446 19.3013 80.272 20.9077C80.6246 21.6864 80.8481 22.2312 81.6004 24.1456C82.0955 25.4057 82.8446 26.6918 83.3456 27.1418C83.8063 27.5557 84.4292 27.789 85.0739 27.789H85.3526L85.2521 27.9623C85.0945 28.2338 84.5407 28.7049 84.161 28.8905C83.6106 29.1594 82.7991 29.2484 82.0481 29.1221ZM65.9614 19.5745C66.4204 18.9029 67.1306 18.1982 67.7757 17.7739C68.6468 17.201 70.2867 16.4672 71.2362 16.2254C71.825 16.0755 72.4826 15.8077 73.5716 15.2745C74.6653 14.739 75.1885 14.4018 75.7461 13.8731C77.2184 12.4769 77.748 11.195 77.8136 8.86808C77.8479 7.65519 77.7754 7.00881 77.5165 6.21621C76.8201 4.08476 74.9664 2.4162 72.6251 1.81347C71.5866 1.54612 70.9999 1.51441 68.4682 1.58886C67.2332 1.62519 65.9848 1.64661 65.6939 1.63643L65.165 1.61797L65.1531 11.3521L65.1412 21.0863L65.4407 20.4922C65.6054 20.1655 65.8397 19.7526 65.9614 19.5745ZM12.3738 29.0393C6.41908 28.2898 1.39533 23.6258 0.28431 17.8155C-0.0695547 15.9649 -0.0596938 13.813 0.310863 12.0197C1.16261 7.89768 4.0656 4.19039 7.93352 2.28512C9.33048 1.59701 10.5469 1.21725 12.1448 0.970325C13.1504 0.814938 15.0869 0.798927 16.0636 0.937936C17.8658 1.19441 19.5576 1.75317 21.0024 2.56912C21.3785 2.78154 21.5533 2.91297 21.5723 2.99768C21.6345 3.27476 22.3829 9.17573 22.363 9.23246C22.3511 9.26636 22.3224 9.18148 22.2991 9.0438C22.2228 8.59089 21.7778 7.11313 21.5167 6.44531C21.2259 5.70132 20.8377 4.93924 20.462 4.37465C19.6061 3.08824 17.8355 1.81764 16.2284 1.33643C15.7881 1.20457 15.6056 1.1832 14.7151 1.15915C13.5056 1.1265 12.8912 1.20855 11.9079 1.53411C10.8074 1.89846 9.88483 2.43142 8.85211 3.29946C7.01542 4.84328 5.4604 7.23382 4.60198 9.83322C3.78613 12.3037 3.58644 15.1479 4.04027 17.8337C4.45725 20.3014 5.44586 22.5157 6.99488 24.4516C7.53786 25.1301 8.56754 26.1372 9.21283 26.6209C11.0526 27.9997 12.9669 28.6343 15.2823 28.6331C16.7177 28.6324 17.8549 28.4272 19.0817 27.948L19.6576 27.723L19.6396 22.736C19.6217 17.7991 19.6203 17.7445 19.4995 17.315C19.3256 16.697 19.0239 16.1551 18.6779 15.8392C18.3679 15.5561 17.7744 15.2187 17.3836 15.1033C17.2533 15.0648 17.1555 15.0245 17.1663 15.0136C17.1772 15.0028 17.5719 15.0441 18.0435 15.1055C19.4986 15.2947 21.1925 15.3607 22.6172 15.2837C23.6926 15.2257 24.7348 15.1231 25.3034 15.0194C25.3952 15.0027 25.2778 15.0748 25.0423 15.1797C24.4047 15.4637 24.1629 15.6204 23.8465 15.9547C23.509 16.3113 23.2537 16.7913 23.089 17.3794C22.9715 17.7986 22.9696 17.8825 22.9504 23.4082L22.931 29.0118L22.5584 28.6366C21.9783 28.0525 21.3694 27.7879 20.6102 27.7898C20.1727 27.7911 19.6997 27.9117 18.9932 28.2026C18.1723 28.5406 17.254 28.811 16.4236 28.9591C15.5262 29.1192 13.3506 29.1622 12.3738 29.0393ZM27.4468 29.1089C27.4621 29.093 27.6639 29.0068 27.8953 28.9174C28.9616 28.5054 29.5256 27.8809 29.854 26.7488L29.9799 26.315V20.4188C29.9799 14.9385 29.9729 14.4954 29.8804 14.1349C29.7608 13.6687 29.4642 13.0403 29.2333 12.7639C28.9787 12.4591 28.3527 12.0588 27.8139 11.8563L27.3319 11.6751L28.1548 11.6417C29.5807 11.5839 30.4131 11.3774 31.3518 10.8486C32.0392 10.4612 32.5725 10.0397 32.9584 9.57848C33.1268 9.37721 33.2834 9.2121 33.3063 9.21158C33.3293 9.21106 33.3481 13.0416 33.3481 17.724C33.3481 27.1561 33.3273 26.6012 33.7113 27.4384C34.0291 28.1315 34.6437 28.6522 35.5067 28.9597C35.6988 29.0282 35.8491 29.0911 35.8407 29.0995C35.8323 29.1079 35.7096 29.0929 35.568 29.0667C34.3337 28.8363 31.2467 28.7182 29.6917 28.842C28.8645 28.9078 27.739 29.045 27.5303 29.1055C27.4691 29.1232 27.4315 29.1248 27.4468 29.1089ZM46.3476 29.086C44.0229 28.7895 42.0912 27.8121 40.4168 26.0852C39.4657 25.1044 38.7892 24.1009 38.3369 23C37.5967 21.1985 37.4011 19.0188 37.8028 17.049C38.3934 14.1538 40.4343 11.544 43.1872 10.1638C46.0609 8.72296 49.8025 8.8513 52.6054 10.4868C53.6403 11.0907 54.8735 12.2008 55.6443 13.2222C56.6718 14.5841 57.3175 16.1817 57.5116 17.8429C57.6127 18.7078 57.5537 20.4716 57.3994 21.1976C56.9676 23.2293 56.0032 24.9385 54.4614 26.4045C52.9087 27.8807 51.1713 28.7333 49.0963 29.0373C48.5527 29.1169 46.8295 29.1475 46.3476 29.086ZM48.5079 28.7005C49.382 28.5048 50.1254 28.0499 50.8995 27.2373C52.2879 25.7795 53.2416 23.5389 53.565 20.9751C53.6555 20.2573 53.6554 18.0213 53.5649 17.3039C53.366 15.7275 52.9795 14.4085 52.3513 13.162C51.1264 10.7316 49.5267 9.48649 47.6331 9.48974C46.8994 9.49106 46.4054 9.60014 45.7909 9.8967C44.4257 10.5556 43.2405 12.019 42.4273 14.0499C41.0503 17.4891 41.2718 22.2933 42.9489 25.3604C43.9737 27.2347 45.187 28.3325 46.6242 28.6858C47.1308 28.8103 47.9876 28.817 48.5079 28.7005ZM30.8609 6.96125C30.3545 6.80308 29.8787 6.37178 29.6443 5.85864C29.436 5.40265 29.4365 4.79191 29.6454 4.32668C29.8316 3.91217 30.2666 3.4781 30.6882 3.286C30.9493 3.16707 31.0888 3.14101 31.4598 3.14183C31.8446 3.14249 31.9659 3.16771 32.2671 3.30853C32.8894 3.59948 33.287 4.11846 33.4152 4.80683C33.5448 5.50322 33.1952 6.2807 32.5628 6.70265C32.0757 7.02766 31.4014 7.13012 30.8609 6.96125Z" fill="#808080"/>
<path d="M81.9502 29.1006C80.6047 28.8188 79.7265 28.0294 78.7586 26.2315C78.3366 25.4475 78.052 24.7552 77.1356 22.2822C76.1779 19.6981 75.8005 18.843 75.2414 17.9904C74.6049 17.0198 74.0619 16.5837 73.2704 16.4073C72.6864 16.2772 72.19 16.3293 71.1369 16.6313C69.085 17.2197 67.8091 17.8799 66.9151 18.8158C66.1736 19.5921 65.5347 20.7125 65.2727 21.6959L65.1289 22.2359L65.152 24.3032C65.1777 26.6036 65.1973 26.7549 65.5635 27.4966C65.8213 28.0187 66.3138 28.4892 66.8765 28.7513C67.6395 29.1065 67.5846 29.0737 67.3641 29.0424C65.956 28.8424 65.554 28.8193 63.4948 28.8202C61.826 28.8208 61.2233 28.8412 60.6407 28.9164C60.2344 28.9688 59.796 29.0248 59.6664 29.0409L59.4307 29.0701L59.6402 28.9885C60.5327 28.6405 61.11 28.1618 61.4242 27.5091C61.8547 26.6149 61.8188 27.6635 61.8395 15.3849C61.8527 7.59393 61.8401 4.24129 61.7964 3.85615C61.6885 2.90728 61.4132 2.25317 60.9135 1.75851C60.6078 1.45586 60.042 1.11827 59.608 0.979559C59.3226 0.888345 59.3674 0.868208 59.7278 0.925752C60.8652 1.10732 63.9575 1.30148 66.4734 1.34931C67.8962 1.37637 68.6157 1.36258 69.8416 1.28473C72.8761 1.09202 75.0014 1.27947 76.8795 1.90573C78.7326 2.52356 80.1142 3.64464 80.8779 5.15017C81.7424 6.85437 81.7806 9.76363 80.9612 11.5027C80.5424 12.3917 79.6923 13.3429 78.775 13.9491C77.7938 14.5975 76.0666 15.347 74.6294 15.748C74.2112 15.8647 74.1959 15.8742 74.3789 15.9037C75.6723 16.1124 76.0455 16.2143 76.6815 16.5321C77.2056 16.794 77.501 17.0054 77.9843 17.4641C78.4569 17.9126 78.9648 18.5257 79.314 19.0693C79.8019 19.8287 80.5976 21.5643 81.3097 23.4226C82.1709 25.67 82.9042 26.9047 83.6688 27.3949C84.0396 27.6327 84.3634 27.7331 84.9049 27.7783L85.3661 27.8168L85.1163 28.1227C84.7896 28.5227 84.2936 28.8712 83.8432 29.0169C83.3804 29.1667 82.46 29.2074 81.9502 29.1006ZM65.4951 20.4088C66.2394 18.923 67.2324 17.979 68.9508 17.1234C69.8055 16.6978 70.509 16.422 71.1918 16.2449C71.8224 16.0813 72.7589 15.6938 73.8221 15.1565C74.8102 14.6572 75.1788 14.4089 75.7783 13.8389C77.1517 12.533 77.7054 11.2756 77.8265 9.1865C77.9597 6.8907 77.4121 5.21861 76.066 3.81088C74.9896 2.68525 73.6362 1.9695 72.0127 1.66732C71.3943 1.55221 70.7054 1.54127 67.1554 1.5902L65.1374 1.61799L65.1373 11.3475C65.1372 16.6988 65.1476 21.0666 65.1603 21.0539C65.1731 21.0411 65.3237 20.7508 65.4951 20.4088ZM12.622 29.0667C7.77785 28.5182 3.59655 25.5612 1.41623 21.142C0.477835 19.24 0.0427356 17.3056 0.039935 15.0233C0.0384227 13.79 0.103414 13.0846 0.314146 12.0475C0.826441 9.52604 2.22402 6.95114 4.1186 5.03811C5.78455 3.35594 7.9498 2.05053 10.1233 1.41794C11.5398 1.00566 12.7117 0.843435 14.2524 0.846352C15.9194 0.849637 17.2385 1.06217 18.7059 1.56436C20.0108 2.01092 21.4824 2.74567 21.5589 2.98873C21.5963 3.1077 22.3834 9.10776 22.3787 9.23847C22.3776 9.26908 22.2793 8.91863 22.1602 8.45973C21.7113 6.73011 21.0731 5.22522 20.3719 4.24266C19.7375 3.35375 18.6552 2.45684 17.4814 1.84726C16.4242 1.29821 15.7688 1.14236 14.5029 1.13892C13.5779 1.13629 13.0894 1.19529 12.3092 1.40319C9.29334 2.20694 6.43424 5.13089 4.90343 8.97693C3.50661 12.4863 3.42908 16.9514 4.70461 20.4268C5.67512 23.0712 7.61141 25.5918 9.76561 27.0151C12.488 28.8137 15.9697 29.1636 19.0749 27.9506L19.6571 27.7232L19.6392 22.7082L19.6213 17.6933L19.494 17.277C19.1478 16.1454 18.6726 15.6371 17.4814 15.1243C17.2817 15.0383 17.2333 15.0025 17.3422 15.0213C18.274 15.1822 20.1943 15.3282 21.3785 15.3282C22.6014 15.3282 24.5507 15.1747 25.3312 15.0169C25.4078 15.0014 25.2884 15.0649 25.0659 15.1579C23.9542 15.6226 23.4124 16.2312 23.0878 17.3798C22.9691 17.8 22.9676 17.8645 22.9503 23.4172L22.9328 29.0298L22.66 28.724C22.1153 28.1135 21.4177 27.7881 20.657 27.7898C20.1654 27.7911 19.7097 27.906 18.8908 28.2359C18.0632 28.5693 17.231 28.8102 16.3679 28.966C15.8632 29.0571 15.445 29.0852 14.3916 29.0987C13.6567 29.1081 12.8604 29.0934 12.622 29.0667ZM46.2641 29.0663C45.1109 28.9083 44.0795 28.59 43.0935 28.0878C40.7965 26.9178 38.9039 24.75 38.1152 22.3855C37.4247 20.3151 37.4337 17.8992 38.1397 15.8537C39.2498 12.6369 42.1906 10.042 45.4756 9.3806C48.3245 8.80698 51.248 9.42133 53.4571 11.0579C54.0062 11.4647 54.9486 12.3667 55.3916 12.9096C56.4193 14.1689 57.0865 15.5776 57.409 17.169C57.5234 17.7331 57.5376 17.9576 57.5356 19.1673C57.5337 20.4303 57.5225 20.5814 57.3839 21.231C57.1132 22.4998 56.6732 23.5547 55.9825 24.5906C54.4099 26.949 52.0914 28.5014 49.4097 28.9914C48.8298 29.0973 46.8369 29.1448 46.2641 29.0663ZM48.6154 28.6827C49.4006 28.4821 50.1293 28.0404 50.7987 27.3593C51.9844 26.1529 52.9623 24.1915 53.3575 22.2266C53.5861 21.09 53.6362 20.5434 53.6382 19.1673C53.6402 17.7682 53.5812 17.1128 53.3549 16.0246C52.7799 13.2593 51.1908 10.7596 49.4668 9.9085C48.3155 9.3401 46.8857 9.33981 45.7353 9.90785C44.6131 10.4619 43.5445 11.6783 42.7564 13.2991C42.2237 14.3947 41.8697 15.5706 41.6596 16.9425C41.5178 17.8681 41.5204 20.4247 41.6642 21.3646C42.0087 23.6191 42.8455 25.5828 44.0846 27.0448C44.7595 27.8412 45.8134 28.5214 46.654 28.7032C47.1995 28.8212 48.111 28.8117 48.6154 28.6827ZM27.7252 29.0052C27.8017 28.969 28.0451 28.8553 28.2661 28.7524C28.8482 28.4814 29.2852 28.0561 29.5626 27.4905C30.0065 26.5854 29.9799 27.0379 29.9799 20.391V14.4671L29.8515 14.0241C29.516 12.866 28.8667 12.2011 27.6815 11.8016L27.3078 11.6757L28.1985 11.6412C29.5811 11.5877 30.4584 11.3669 31.3717 10.8427C32.0521 10.4522 32.5223 10.0834 32.9237 9.62536L33.2887 9.20884L33.3054 17.7619L33.322 26.3149L33.4426 26.7401C33.7578 27.8514 34.2887 28.4581 35.3245 28.8904C35.7193 29.0552 35.7427 29.0726 35.5306 29.0434C34.0777 28.8436 33.6484 28.8189 31.6222 28.8185C29.6089 28.818 29.0327 28.8518 27.7593 29.0448C27.5893 29.0705 27.5887 29.0698 27.7252 29.0052ZM30.8776 6.95029C30.3699 6.79454 29.9321 6.42243 29.6622 5.91746C29.5524 5.71194 29.5345 5.59691 29.5345 5.0945C29.5345 4.55303 29.5464 4.48906 29.6972 4.21708C29.8867 3.87536 30.2783 3.49115 30.6261 3.30579C30.838 3.19291 30.9488 3.17548 31.4552 3.17548C31.982 3.17548 32.0678 3.19026 32.3229 3.32474C33.1071 3.73816 33.539 4.56027 33.4059 5.38598C33.3294 5.8605 33.1651 6.15823 32.7865 6.50848C32.2647 6.99112 31.5499 7.15656 30.8776 6.95029Z" fill="#666666"/>
<path d="M82.0684 29.1169C81.2438 28.98 80.4707 28.5493 79.8706 27.8924C79.4424 27.4235 78.7657 26.3098 78.3473 25.3853C78.1798 25.015 77.684 23.7461 77.2457 22.5654C76.2381 19.8516 76.1588 19.6536 75.7956 18.9448C74.8206 17.0418 73.9489 16.3305 72.5921 16.3305C71.9595 16.3305 69.9957 16.9191 68.8903 17.4401C68.1297 17.7985 67.6244 18.1334 67.1157 18.6163C66.4322 19.265 65.9276 20.0016 65.5287 20.933C65.1377 21.846 65.1261 21.9505 65.1508 24.319C65.175 26.6473 65.1862 26.7357 65.5522 27.483C65.8596 28.1109 66.3279 28.5255 67.1398 28.8888C67.4487 29.027 67.5077 29.0683 67.3641 29.0457C65.0549 28.6829 62.1519 28.6814 59.6256 29.0418L59.4307 29.0696L59.6402 28.9882C60.5247 28.6447 61.1253 28.1487 61.4327 27.5078C61.8547 26.6279 61.8246 27.5887 61.8246 14.9956C61.8246 2.32072 61.859 3.33994 61.4016 2.42705C61.1187 1.86228 60.7366 1.50714 60.0513 1.17211C59.7712 1.0352 59.5585 0.923087 59.5785 0.922982C59.5986 0.922877 59.9368 0.959901 60.3301 1.00532C63.1939 1.33586 67.7836 1.44852 70.4818 1.2545C71.4646 1.18382 73.1991 1.21291 74.1005 1.31521C76.971 1.64093 79.0903 2.63593 80.2836 4.21816C81.1675 5.39018 81.5274 6.61095 81.5258 8.432C81.5244 9.57242 81.4419 10.1755 81.1789 10.9575C80.818 12.0306 79.991 13.0929 78.9295 13.847C78.0171 14.4951 75.9635 15.391 74.518 15.7715C74.0816 15.8864 74.086 15.889 74.8978 15.9935C76.6809 16.2232 78.084 17.2037 79.3025 19.0714C79.8183 19.8622 80.5893 21.5433 81.3361 23.506C82.1848 25.7363 83.0359 27.0995 83.8336 27.506C84.161 27.673 84.6502 27.7891 85.026 27.7891C85.3449 27.7891 85.3492 27.791 85.2836 27.9142C85.247 27.9831 85.0723 28.1812 84.8954 28.3545C84.2038 29.0321 83.1955 29.3039 82.0684 29.1169ZM65.9743 19.5815C66.3591 19.0116 67.0283 18.3205 67.5699 17.9333C68.0859 17.5644 69.3004 16.9238 70.0268 16.6374C70.3125 16.5248 70.8495 16.3462 71.2203 16.2406C72.3648 15.9146 74.3602 14.9729 75.1446 14.3887C75.6476 14.0141 76.36 13.2856 76.7272 12.7706C77.5076 11.6758 77.8412 10.4141 77.8449 8.54315C77.8462 7.75057 77.8244 7.46328 77.7257 6.99668C77.4244 5.57154 76.8649 4.56581 75.8123 3.5571C74.8269 2.61272 73.6417 2.00245 72.1902 1.6921C71.5521 1.55564 70.6445 1.53766 67.044 1.59018L65.1373 1.61797L65.1379 11.3799L65.1386 21.1419L65.4095 20.5791C65.5585 20.2696 65.8127 19.8207 65.9743 19.5815ZM12.6802 29.067C10.9048 28.8654 9.55345 28.4736 7.9892 27.707C4.3535 25.9252 1.57419 22.6132 0.535166 18.8243C-0.127831 16.4066 -0.127831 13.5844 0.535166 11.1667C1.28443 8.43446 3.02324 5.81029 5.29678 3.9806C7.8776 1.90362 10.8816 0.846738 14.1967 0.849431C16.4851 0.851402 18.424 1.29993 20.4042 2.2858C20.9247 2.54496 21.397 2.79321 21.4538 2.83747C21.5421 2.90641 21.6156 3.36666 21.9665 6.04796C22.1918 7.76948 22.3694 9.18472 22.3612 9.19296C22.3529 9.20117 22.2879 8.96449 22.2167 8.66694C21.8036 6.94174 21.1645 5.38859 20.4214 4.30467C19.8522 3.47433 18.7276 2.51283 17.5927 1.88628C17.1201 1.62535 16.331 1.3296 15.839 1.229C15.2072 1.0998 13.7843 1.09846 13.0554 1.22637C10.3039 1.70921 7.69212 3.77932 5.90044 6.89751C4.42047 9.4732 3.69781 12.4368 3.80371 15.4961C3.88803 17.932 4.34759 19.8536 5.31362 21.8094C7.06277 25.3508 9.9488 27.7878 13.1847 28.4558C15.1673 28.8651 17.3867 28.6578 19.249 27.8895L19.6526 27.723L19.6506 22.9028C19.6485 17.7198 19.6444 17.6349 19.3575 16.8799C19.0482 16.066 18.5596 15.5786 17.6694 15.1963C17.2826 15.0301 17.3164 15.0257 18.1517 15.1333C20.1573 15.3915 22.6084 15.3915 24.5217 15.1334C25.338 15.0233 25.3637 15.0284 24.9286 15.2139C24.4432 15.4208 23.8859 15.8202 23.6637 16.1206C23.4343 16.4306 23.198 16.9357 23.0709 17.3873C22.9761 17.7245 22.968 18.1287 22.951 23.3894L22.9328 29.0299L22.6576 28.7214C22.1025 28.0991 21.438 27.789 20.6599 27.789C20.1457 27.789 19.682 27.9065 18.8337 28.2518C18.0576 28.5678 17.2087 28.8099 16.3401 28.9632C15.5882 29.0958 13.4648 29.1561 12.6802 29.067ZM46.1528 29.0434C44.0238 28.7361 42.2955 27.8893 40.7127 26.3781C38.4789 24.2454 37.4332 21.5302 37.6402 18.4009C37.803 15.9405 38.7605 13.8721 40.5692 12.0738C42.6818 9.9733 45.3635 8.98615 48.3476 9.21049C50.9594 9.40684 53.0083 10.3905 54.8731 12.3435C56.3628 13.9035 57.2418 15.7532 57.5071 17.8865C57.5892 18.5471 57.5782 19.8639 57.4845 20.5665C57.1689 22.9355 56.0132 25.0568 54.1548 26.6784C52.7228 27.928 51.2442 28.6432 49.3737 28.9911C48.7229 29.1122 46.8409 29.1428 46.1528 29.0434ZM48.632 28.6785C51.0061 28.0718 52.9778 25.088 53.5387 21.2532C53.6597 20.4261 53.6771 18.0316 53.568 17.2205C53.4742 16.5226 53.3042 15.6903 53.1362 15.1068C52.5716 13.1448 51.4284 11.2996 50.2049 10.3752C49.3661 9.74148 48.5957 9.47508 47.6003 9.47451C46.3602 9.47385 45.3547 9.92798 44.3631 10.9367C43.0175 12.3054 42.0671 14.3961 41.6683 16.8649C41.5283 17.7315 41.4979 19.8977 41.6118 20.8916C42.0653 24.8496 44.0824 28.0312 46.5468 28.676C47.1241 28.827 48.0465 28.828 48.632 28.6785ZM28.0051 28.8891C29.0401 28.4252 29.5739 27.8104 29.878 26.7321C29.9739 26.3919 29.9799 26.0188 29.9799 20.4188C29.9799 13.7429 30.0064 14.1965 29.5641 13.2946C29.2289 12.6111 28.7687 12.2283 27.8252 11.8482L27.3942 11.6746L28.2695 11.6396C29.1834 11.603 29.7283 11.5181 30.3402 11.317C31.2181 11.0285 32.134 10.4464 32.8037 9.75146L33.2893 9.24757L33.3054 17.7813L33.3214 26.315L33.4451 26.7512C33.7616 27.8668 34.2359 28.4149 35.2951 28.8888C35.6039 29.027 35.6629 29.0683 35.5193 29.0457C34.1026 28.8232 32.0758 28.7194 30.5292 28.7904C29.5372 28.8358 28.1186 28.9662 27.7252 29.048C27.6486 29.0639 27.7746 28.9924 28.0051 28.8891ZM30.9502 6.96879C30.0783 6.72179 29.5067 5.97964 29.5067 5.09449C29.5067 4.52407 29.667 4.14585 30.0864 3.72684C30.3322 3.48123 30.5138 3.35519 30.7475 3.26794C31.1752 3.10828 31.7308 3.10657 32.151 3.26334C32.5877 3.42662 33.0647 3.88034 33.2625 4.32083C33.4029 4.63332 33.4143 4.70817 33.3925 5.17088C33.3643 5.76792 33.2252 6.09303 32.8378 6.46807C32.3626 6.92807 31.5593 7.14133 30.9502 6.96879Z" fill="#4C4C4C"/>
<path d="M82.0338 29.0963C80.883 28.8799 80.1087 28.3334 79.3647 27.2123C78.9362 26.5666 78.4254 25.5932 78.0911 24.7853C77.9835 24.5252 77.5402 23.3488 77.106 22.171C76.6719 20.9931 76.1429 19.6676 75.9305 19.2254C74.6988 16.6612 73.5954 15.9736 71.5595 16.5017C70.0331 16.8976 68.7327 17.4295 67.8446 18.0212C66.6875 18.7921 65.6023 20.3416 65.2477 21.7293C65.1348 22.1708 65.1302 22.2951 65.1498 24.3373C65.1696 26.3952 65.1756 26.4975 65.2984 26.8712C65.6554 27.9571 66.2402 28.5605 67.3495 28.9874C67.5329 29.058 67.5382 29.0646 67.3919 29.0409C66.1878 28.8451 64.0028 28.7131 62.7711 28.7617C61.9975 28.7922 60.8112 28.8868 59.9219 28.9889L59.6534 29.0198L60.1031 28.7924C60.7608 28.4598 61.1337 28.1039 61.4059 27.5489C61.863 26.617 61.8246 27.768 61.8246 14.9955V3.62044L61.6988 3.18662C61.3819 2.0942 60.8807 1.51158 59.8736 1.06502C59.5961 0.941937 59.5738 0.9227 59.7369 0.946936C60.5739 1.07133 62.7285 1.22644 64.7753 1.30966C65.5408 1.3408 66.4302 1.37798 66.7517 1.39232C67.3261 1.41795 68.0966 1.39035 70.711 1.25122C74.098 1.07079 76.9015 1.60725 78.7213 2.784C80.1851 3.7306 81.1182 5.15288 81.4169 6.89273C81.749 8.82804 81.4242 10.9214 80.6076 12.1078C79.7476 13.3574 78.8189 14.0682 76.9949 14.8732C76.1719 15.2364 74.9771 15.665 74.4782 15.7759C74.3032 15.8148 74.1708 15.8642 74.184 15.8856C74.1972 15.907 74.3905 15.9399 74.6136 15.9588C75.5154 16.0351 76.5499 16.3965 77.2806 16.8904C77.9967 17.3745 78.9524 18.4532 79.5136 19.4108C79.8805 20.0369 80.5138 21.4512 81.2102 23.2C82.099 25.4318 82.5493 26.2997 83.1609 26.9596C83.6663 27.5051 84.293 27.789 84.9921 27.789H85.3517L85.1781 28.0411C84.5714 28.9221 83.3277 29.3395 82.0338 29.0963ZM66.1639 19.327C66.5892 18.7637 67.2195 18.1594 67.7478 17.8085C68.2755 17.458 69.6353 16.7734 70.2276 16.56C70.5012 16.4614 70.9548 16.3197 71.2355 16.245C71.8872 16.0718 72.5937 15.7772 73.7576 15.1932C74.8409 14.6498 75.3138 14.3305 75.8933 13.7515C76.9627 12.6831 77.4692 11.7217 77.7286 10.2676C77.8827 9.40419 77.8971 7.79098 77.757 7.08526C77.4743 5.66161 76.8924 4.59765 75.8441 3.58798C74.8136 2.59552 73.6972 2.01633 72.1856 1.69005C71.557 1.55437 70.5585 1.53529 66.9605 1.59018L65.1372 1.61797L65.1375 11.3799L65.1378 21.1419L65.4697 20.4744C65.6523 20.1073 65.9647 19.591 66.1639 19.327ZM12.7492 29.0673C9.39779 28.7206 6.35448 27.2323 3.98029 24.7789C1.93377 22.6641 0.678583 20.1548 0.185527 17.1926C0.0386724 16.3104 0.0386724 13.6806 0.185527 12.7984C0.595744 10.3339 1.41578 8.42881 2.9366 6.40729C3.47366 5.6934 4.93438 4.23282 5.62311 3.72103C7.95903 1.98521 10.3795 1.08765 13.3182 0.867536C15.0888 0.734912 17.3074 1.04821 19.0204 1.67273C19.5428 1.8632 21.2398 2.67606 21.4498 2.83642C21.533 2.89995 21.6115 3.39056 21.9369 5.87858C22.1503 7.51012 22.3235 8.87096 22.3217 8.90267C22.3199 8.9344 22.2178 8.59814 22.0946 8.15546C21.542 6.16874 20.8532 4.735 19.9495 3.69001C19.3074 2.94757 17.9053 1.96518 16.9086 1.55943C16.2374 1.28617 15.8665 1.20176 15.0596 1.13861C12.4401 0.933609 10.0877 1.92353 7.95684 4.12753C6.96888 5.14941 6.14198 6.34283 5.45616 7.73659C4.36985 9.94427 3.87973 11.9332 3.80451 14.4393C3.67102 18.8862 5.07272 22.622 7.95912 25.5123C8.99265 26.5472 9.71304 27.08 10.8449 27.6466C11.9859 28.2178 13.0833 28.5178 14.4568 28.6339C16.0861 28.7717 17.9676 28.4737 19.3327 27.8616L19.6565 27.7164L19.6382 22.677C19.6213 18.023 19.6123 17.6123 19.5201 17.3059C19.1978 16.2353 18.6639 15.6176 17.7085 15.2103C17.2842 15.0294 17.3155 15.0231 18.098 15.1316C19.2106 15.2858 20.5251 15.3457 22.0187 15.3103C23.2872 15.2803 23.8128 15.2402 25.025 15.0813L25.3034 15.0449L24.9884 15.1788C24.1708 15.5263 23.678 15.9614 23.3647 16.6123C22.9491 17.4756 22.9718 17.1023 22.9518 23.3809L22.9338 29.013L22.6071 28.6652C21.9828 28.0005 21.3938 27.7605 20.4877 27.8017C19.9349 27.8268 19.8121 27.8614 18.5835 28.3376C17.2191 28.8663 16.1068 29.0691 14.4194 29.0966C13.7611 29.1074 13.0095 29.094 12.7492 29.0673ZM46.5703 29.0879C44.1372 28.8061 42.309 27.9382 40.6113 26.2593C38.8878 24.5547 37.9972 22.7775 37.6874 20.4244C37.5868 19.6605 37.6463 17.8937 37.7978 17.1437C38.1151 15.5733 38.7798 14.1642 39.7857 12.9301C40.2295 12.3856 41.2696 11.3998 41.8103 11.0113C43.5336 9.77325 45.337 9.20576 47.5521 9.20458C49.3396 9.20392 50.5923 9.4869 52.0541 10.2226C54.7198 11.5642 56.7355 14.1166 57.339 16.9145C57.596 18.1061 57.6319 19.7898 57.425 20.9472C57.0171 23.2285 55.8174 25.2839 54.0142 26.7909C52.4283 28.1162 50.7386 28.8471 48.7577 29.0646C48.2586 29.1193 46.9614 29.1332 46.5703 29.0879ZM48.6024 28.6957C50.2623 28.2993 51.806 26.6507 52.7651 24.2501C53.434 22.5757 53.7108 20.8305 53.6506 18.6666C53.5934 16.6052 53.2325 14.9498 52.5052 13.4127C51.5137 11.3171 50.1598 9.98458 48.5992 9.56856C48.1251 9.44219 47.147 9.43902 46.6411 9.56199C45.0547 9.94828 43.7242 11.2517 42.6776 13.4447C41.9109 15.051 41.5945 16.545 41.5481 18.7776C41.5073 20.7368 41.6684 21.9908 42.1552 23.5057C42.5908 24.861 43.4156 26.339 44.2218 27.2089C45.4725 28.5586 47.0019 29.0778 48.6024 28.6957ZM27.7954 28.9874C28.6499 28.6585 29.2727 28.1386 29.5907 27.4887C30.0025 26.6468 29.9799 27.0586 29.9799 20.391C29.9799 14.7762 29.9737 14.3896 29.8786 14.0546C29.5523 12.9058 28.8647 12.1995 27.6537 11.7693L27.3633 11.6662L27.9771 11.6622C29.214 11.654 30.1181 11.4688 30.982 11.0467C31.8107 10.6418 32.2069 10.362 32.7761 9.77971L33.2897 9.25429L33.3061 17.8125C33.3244 27.3784 33.291 26.5961 33.7188 27.4987C34.0284 28.1522 34.6237 28.6484 35.5047 28.9875C35.6883 29.0581 35.6935 29.0647 35.5472 29.041C33.2397 28.6668 30.2271 28.6675 27.753 29.043C27.6045 29.0655 27.6092 29.059 27.7954 28.9874ZM22.3293 9.12252C22.332 9.05774 22.3452 9.04455 22.3629 9.08889C22.379 9.12903 22.377 9.17702 22.3585 9.1955C22.34 9.21396 22.3269 9.18114 22.3293 9.12252ZM31.029 6.98646C30.4803 6.8706 29.9396 6.44711 29.6888 5.93667C29.5531 5.66061 29.5345 5.5593 29.5346 5.09444C29.5346 4.66902 29.5582 4.51487 29.6559 4.30362C29.8259 3.93577 30.2439 3.51027 30.6132 3.32906C30.8884 3.19403 30.9904 3.17542 31.4552 3.17542C31.9201 3.17542 32.022 3.19401 32.2972 3.32906C32.6474 3.50087 33.0486 3.89735 33.2455 4.26609C33.3585 4.47772 33.3759 4.58851 33.3759 5.09444C33.3759 5.63626 33.3641 5.69975 33.2128 5.97265C33.0087 6.34083 32.6466 6.67816 32.2722 6.8489C31.9459 6.99775 31.3793 7.06044 31.029 6.98646Z" fill="#333333"/>
</svg>
